<?xml version="1.0" encoding="UTF-8" standalone="no"?>
<!-- Created with Inkscape (http://www.inkscape.org/) -->

<svg
   xmlns:dc="http://purl.org/dc/elements/1.1/"
   xmlns:cc="http://creativecommons.org/ns#"
   xmlns:rdf="http://www.w3.org/1999/02/22-rdf-syntax-ns#"
   xmlns:svg="http://www.w3.org/2000/svg"
   xmlns="http://www.w3.org/2000/svg"
   xmlns:sodipodi="http://sodipodi.sourceforge.net/DTD/sodipodi-0.dtd"
   xmlns:inkscape="http://www.inkscape.org/namespaces/inkscape"
   id="svg2"
   version="1.1"
   inkscape:version="0.91 r13725"
   xml:space="preserve"
   width="1440"
   height="1000"
   viewBox="0 0 1440 1000"
   sodipodi:docname="businessinfographic (2).ai"><metadata
     id="metadata8"><rdf:RDF><cc:Work
         rdf:about=""><dc:format>image/svg+xml</dc:format><dc:type
           rdf:resource="http://purl.org/dc/dcmitype/StillImage" /><dc:title></dc:title></cc:Work></rdf:RDF></metadata><defs
     id="defs6"><clipPath
       clipPathUnits="userSpaceOnUse"
       id="clipPath18"><path
         d="M 0,800 800,800 800,0 0,0 0,800 Z"
         id="path20"
         inkscape:connector-curvature="0" /></clipPath><clipPath
       clipPathUnits="userSpaceOnUse"
       id="clipPath26"><path
         d="m 244.852,101.12 304.961,0 0,-15.7968 -304.961,0 0,15.7968 z"
         id="path28"
         inkscape:connector-curvature="0" /></clipPath><clipPath
       clipPathUnits="userSpaceOnUse"
       id="clipPath42"><path
         d="M 0,800 800,800 800,0 0,0 0,800 Z"
         id="path44"
         inkscape:connector-curvature="0" /></clipPath><clipPath
       clipPathUnits="userSpaceOnUse"
       id="clipPath122"><path
         d="M 0,800 800,800 800,0 0,0 0,800 Z"
         id="path124"
         inkscape:connector-curvature="0" /></clipPath><clipPath
       clipPathUnits="userSpaceOnUse"
       id="clipPath156"><path
         d="M 0,800 800,800 800,0 0,0 0,800 Z"
         id="path158"
         inkscape:connector-curvature="0" /></clipPath><clipPath
       clipPathUnits="userSpaceOnUse"
       id="clipPath352"><path
         d="m 435.808,481.761 c -5.875,-2.607 -1.935,-13.407 0.544,-17.121 l 0,0 c 3.221,-4.823 17.337,-6.402 21.97,-1.362 l 0,0 c 0.954,1.037 1.79,2.806 2.414,4.523 l 0,0 c 0.356,0.977 0.644,1.937 0.848,2.737 l 0,0 c 0.562,2.203 1.205,6.716 0.562,8.756 l 0,0 c -0.088,0.277 -0.197,0.521 -0.32,0.736 l 0,0 c -0.781,1.372 -2.133,1.572 -2.133,1.572 l 0,0 c -2.585,1.058 -7.775,1.668 -12.82,1.668 l 0,0 c -4.414,0 -8.716,-0.467 -11.065,-1.509"
         id="path354"
         inkscape:connector-curvature="0" /></clipPath><clipPath
       clipPathUnits="userSpaceOnUse"
       id="clipPath364"><path
         d="m 394.555,485.957 c 0,0 -1.828,-0.024 -2.737,-1.961 l 0,0 c -0.162,-0.346 -0.296,-0.775 -0.401,-1.261 l 0,0 c -0.488,-2.231 -0.426,-5.636 -0.209,-7.492 l 0,0 c 0.112,-0.967 0.313,-2.174 0.604,-3.379 l 0,0 c 0.387,-1.609 0.938,-3.214 1.663,-4.251 l 0,0 c 3.919,-5.612 18.121,-5.926 21.956,-1.573 l 0,0 c 2.952,3.351 8.293,13.529 2.819,16.895 l 0,0 c -3.504,2.154 -12.161,3.513 -18.432,3.513 l 0,0 c -2.127,0 -3.979,-0.157 -5.263,-0.491"
         id="path366"
         inkscape:connector-curvature="0" /></clipPath><clipPath
       clipPathUnits="userSpaceOnUse"
       id="clipPath376"><path
         d="m 270.859,181.4 c -1.602,0 -2.913,-1.31 -2.913,-2.913 l 0,0 0,-35.785 c 14.126,-9.298 36.337,-15.293 61.321,-15.293 l 0,0 c 24.984,0 47.194,5.995 61.321,15.292 l 0,0 0,35.786 c 0,1.603 -1.311,2.913 -2.913,2.913 l 0,0 -116.816,0 z"
         id="path378"
         inkscape:connector-curvature="0" /></clipPath><clipPath
       clipPathUnits="userSpaceOnUse"
       id="clipPath388"><path
         d="M 0,800 800,800 800,0 0,0 0,800 Z"
         id="path390"
         inkscape:connector-curvature="0" /></clipPath><clipPath
       clipPathUnits="userSpaceOnUse"
       id="clipPath454"><path
         d="M 0,800 800,800 800,0 0,0 0,800 Z"
         id="path456"
         inkscape:connector-curvature="0" /></clipPath></defs><sodipodi:namedview
     pagecolor="#ffffff"
     bordercolor="#666666"
     borderopacity="1"
     objecttolerance="10"
     gridtolerance="10"
     guidetolerance="10"
     inkscape:pageopacity="0"
     inkscape:pageshadow="2"
     inkscape:window-width="1366"
     inkscape:window-height="697"
     id="namedview4"
     showgrid="false"
     inkscape:zoom="0.472"
     inkscape:cx="746.24645"
     inkscape:cy="500"
     inkscape:window-x="0"
     inkscape:window-y="24"
     inkscape:window-maximized="1"
     inkscape:current-layer="g10" /><g
     id="g10"
     inkscape:groupmode="layer"
     inkscape:label="businessinfographic (2)"
     transform="matrix(1.25,0,0,-1.25,0,1000)"><path
       d="m 0,0 1152.5424,0 0,799.618 L 0,799.618 0,0 Z"
       style="fill:#ffd400;fill-opacity:1;fill-rule:nonzero;stroke:none"
       id="path12"
       inkscape:connector-curvature="0" /><g
       id="g4708"
       transform="matrix(1.228732,0,0,1.228732,338.71224,70.639157)"><g
         id="g152"><g
           clip-path="url(#clipPath156)"
           id="g154"><g
             transform="translate(466.5566,130.3975)"
             id="g160"><path
               inkscape:connector-curvature="0"
               id="path162"
               style="fill:#120f12;fill-opacity:1;fill-rule:evenodd;stroke:none"
               d="m 0,0 c 0,0 -3.785,-10.374 -8.977,-13.719 -1.1,-6.215 2.406,-14.018 -1.525,-18.348 -2.199,-0.934 -6.233,-6.525 -2.083,-6.336 l 9.029,0.186 8.442,20.564 -0.972,3.521 2.535,-0.855 2.469,8.413 C 8.918,-6.574 4.527,0.774 0,0" /></g><g
             transform="translate(377.0786,294.8818)"
             id="g164"><path
               inkscape:connector-curvature="0"
               id="path166"
               style="fill:#191014;fill-opacity:1;fill-rule:evenodd;stroke:none"
               d="m 0,0 c 0,0 3.089,-93.948 5.066,-97.858 1.977,-3.912 73.326,-83.193 73.326,-83.193 12.425,7.444 7.642,5.359 13.88,16.814 -10.599,16.685 -37.024,52.562 -63.462,78.018 -0.723,4.411 4.198,64.794 4.198,64.794 L 33.958,1.513 21.241,5.045 0,0 Z" /></g><g
             transform="translate(467.7021,127.4238)"
             id="g168"><path
               inkscape:connector-curvature="0"
               id="path170"
               style="fill:#150e11;fill-opacity:1;fill-rule:evenodd;stroke:none"
               d="m 0,0 c 0.448,0.939 0.985,2.003 1.648,3.221 -10.598,16.685 -38.915,54.748 -67.334,80.776 -0.723,4.411 8.07,62.036 8.07,62.036 l 0.082,1.979 c -0.01,-0.001 -1.872,-0.14 -4.037,0.895 -2.17,1.037 -3.491,1.981 -3.491,1.981 l 4.287,-4.919 -8.152,-63.193 c 0,0 36.229,-44.716 51.134,-61.131 C -7.301,10.09 -2.138,3.117 0,0" /></g><g
             transform="translate(412.3437,108.3184)"
             id="g172"><path
               inkscape:connector-curvature="0"
               id="path174"
               style="fill:#120f12;fill-opacity:1;fill-rule:evenodd;stroke:none"
               d="m 0,0 -3.539,-8.536 c -2.936,-3.554 -2.499,-3.086 -2.298,-7.798 l 23.642,-0.019 c 0,0 0.184,5.6 -2.021,7.309 -2.302,0.932 -5.238,9.24 -5.238,9.24 L 0,0 Z" /></g><g
             transform="translate(428.9111,101.1191)"
             id="g176"><path
               inkscape:connector-curvature="0"
               id="path178"
               style="fill:#191014;fill-opacity:1;fill-rule:evenodd;stroke:none"
               d="m 0,0 -20.618,1.494 1.794,170.844 -3.16,-0.065 2.008,23.586 2.509,-1.365 7.595,3.634 27.426,-11.926 C 14.65,126.173 6.473,59.865 0,0" /></g><g
             transform="translate(427.415,291.3604)"
             id="g180"><path
               inkscape:connector-curvature="0"
               id="path182"
               style="fill:#dad8da;fill-opacity:1;fill-rule:evenodd;stroke:none"
               d="m 0,0 c -0.811,-0.975 -17.868,-10.419 -23.368,-8.601 l -18.662,6.167 c -6.158,2.035 -11.553,6.929 -11.553,6.929 0,0 23.562,6.864 24.536,6.701 C -28.074,11.034 0,0 0,0" /></g><g
             transform="translate(448.4863,410.7646)"
             id="g184"><path
               inkscape:connector-curvature="0"
               id="path186"
               style="fill:#dad8da;fill-opacity:1;fill-rule:evenodd;stroke:none"
               d="M 0,0 C 1.693,-2.462 28.645,-10.739 28.769,-10.777 28.168,-10.593 17.196,-37.461 15.989,-40.06 6.482,-60.522 1.778,-81.575 4.766,-104.355 c 0.368,-2.81 0.879,-5.556 1.447,-8.335 l -22.797,-8.028 -7.953,-8.844 -50.117,14.653 c 3.802,14.954 7.215,30.652 7.882,46.139 0.921,21.392 -8.573,40.865 -15.835,60.515 L -48.453,3.566 -3.233,1.402 0,0 Z" /></g><g
             transform="translate(450.5088,299.2871)"
             id="g188"><path
               inkscape:connector-curvature="0"
               id="path190"
               style="fill:#edc2b4;fill-opacity:1;fill-rule:evenodd;stroke:none"
               d="m 0,0 c -1.566,-0.477 -17.958,-8.428 -18.606,-9.24 -0.649,-0.811 -5.842,-6.816 -4.543,-8.114 1.297,-1.297 12.495,-13.307 13.63,-11.846 1.136,1.461 14.119,15.903 14.119,15.903 L 0,0 Z" /></g><g
             transform="translate(427.3594,281.9336)"
             id="g192"><path
               inkscape:connector-curvature="0"
               id="path194"
               style="fill:#dcb1a1;fill-opacity:1;fill-rule:evenodd;stroke:none"
               d="M 0,0 C -0.236,0.235 -0.254,0.63 -0.127,1.118 L 3.822,4.97 c 0,0 -2.27,-4.182 -2.031,-5.701 0.239,-1.52 10.994,-7.444 11.98,-7.324 0.721,0.087 8.566,9.587 13,14.94 l 0.978,-2.828 c 0,0 -12.982,-14.443 -14.118,-15.904 C 12.495,-13.308 1.298,-1.298 0,0" /></g><g
             transform="translate(455.2656,389.2744)"
             id="g196"><path
               inkscape:connector-curvature="0"
               id="path198"
               style="fill:#dad8da;fill-opacity:1;fill-rule:evenodd;stroke:none"
               d="m 0,0 21.99,10.713 c 3.363,-8.744 6.725,-17.487 10.088,-26.232 2.73,-7.098 5.46,-14.197 8.191,-21.295 2.45,-6.373 7.871,-14.554 7.788,-21.267 -0.092,-7.408 -5.934,-11.602 -10.543,-16.541 -4.802,-5.146 -9.603,-10.291 -14.405,-15.436 -6.266,-6.715 -12.533,-13.43 -18.799,-20.146 l -18.875,17.923 37.352,39.06 L 0,0 Z" /></g><g
             transform="translate(460.3125,479.3384)"
             id="g200"><path
               inkscape:connector-curvature="0"
               id="path202"
               style="fill:#e2b09f;fill-opacity:1;fill-rule:evenodd;stroke:none"
               d="M 0,0 C 2.612,1.119 16.552,8.276 18.013,4.382 19.473,0.487 14.279,-16.715 12.819,-18.662 11.359,-20.609 1.623,-23.206 1.136,-22.07 0.648,-20.934 0,0 0,0" /></g><g
             transform="translate(465.667,479.9062)"
             id="g204"><path
               inkscape:connector-curvature="0"
               id="path206"
               style="fill:#e09275;fill-opacity:1;fill-rule:evenodd;stroke:none"
               d="m 0,0 c 1.055,0.325 6.004,2.028 7.06,0.163 1.054,-1.867 -0.164,-6.411 -0.164,-7.384 0,-0.974 -1.866,-8.033 -3.164,-9.25 -1.298,-1.217 -6.41,-2.84 -6.734,-1.866 C -3.327,-17.363 0,0 0,0" /></g><g
             transform="translate(392.1934,482.3848)"
             id="g208"><path
               inkscape:connector-curvature="0"
               id="path210"
               style="fill:#e2b09f;fill-opacity:1;fill-rule:evenodd;stroke:none"
               d="m 0,0 c -2.612,1.119 -16.552,8.277 -18.013,4.382 -1.46,-3.895 3.733,-21.096 5.194,-23.044 1.46,-1.946 11.196,-4.544 11.683,-3.407 C -0.649,-20.934 0,0 0,0" /></g><g
             transform="translate(386.8389,482.9531)"
             id="g212"><path
               inkscape:connector-curvature="0"
               id="path214"
               style="fill:#e09275;fill-opacity:1;fill-rule:evenodd;stroke:none"
               d="m 0,0 c -1.055,0.325 -6.004,2.028 -7.059,0.162 -1.054,-1.866 0.163,-6.41 0.163,-7.383 0,-0.974 1.865,-8.033 3.164,-9.251 1.298,-1.216 6.41,-2.839 6.734,-1.865 C 3.327,-17.364 0,0 0,0" /></g><g
             transform="translate(402.8682,408.1572)"
             id="g216"><path
               inkscape:connector-curvature="0"
               id="path218"
               style="fill:#94989c;fill-opacity:1;fill-rule:evenodd;stroke:none"
               d="m 0,0 c -0.15,0.375 -5.41,5.959 -5.335,6.173 0.075,0.214 -0.032,6.642 -0.032,6.642 L 41.771,11.467 40.804,1.277 0,0 Z" /></g><g
             transform="translate(440.4238,441.2319)"
             id="g220"><path
               inkscape:connector-curvature="0"
               id="path222"
               style="fill:#d9a795;fill-opacity:1;fill-rule:evenodd;stroke:none"
               d="m 0,0 c -0.975,-6.167 -3.412,-24.205 -1.466,-25.828 1.947,-1.623 12.82,-6.005 12.82,-6.005 0,0 -24.649,-17.201 -29.534,-17.85 -4.885,-0.65 -29.859,19.474 -29.859,19.474 0,0 12.658,4.868 14.604,7.789 1.949,2.92 3.895,27.262 3.895,27.262 L 0,0 Z" /></g><g
             transform="translate(389.4004,509.6836)"
             id="g224"><path
               inkscape:connector-curvature="0"
               id="path226"
               style="fill:#edc2b4;fill-opacity:1;fill-rule:evenodd;stroke:none"
               d="m 0,0 c -0.33,-16.04 0.252,-32.367 -0.995,-48.354 -1.302,-16.688 14.314,-29.166 27.074,-37.032 2.872,-1.77 7.284,-1.085 10.696,-1.343 5.081,-0.384 7.166,1.602 11.085,4.214 2.327,1.551 4.638,3.126 6.881,4.796 4.459,3.32 8.686,7.021 12.069,11.46 3.38,4.435 5.802,9.145 6.294,14.657 0.381,4.28 1.16,8.557 1.737,12.816 L 77.291,-2.924 0,0 Z" /></g><g
             transform="translate(389.4004,509.6836)"
             id="g228"><path
               inkscape:connector-curvature="0"
               id="path230"
               style="fill:#deb7a9;fill-opacity:1;fill-rule:evenodd;stroke:none"
               d="m 0,0 c -0.33,-16.04 0.252,-32.367 -0.995,-48.354 -1.302,-16.688 14.314,-29.166 27.074,-37.032 2.872,-1.77 7.284,-1.085 10.696,-1.343 5.081,-0.384 7.166,1.602 11.085,4.214 2.327,1.551 4.638,3.126 6.881,4.796 4.459,3.32 8.686,7.021 12.069,11.46 3.38,4.435 5.802,9.145 6.294,14.657 0.381,4.28 1.16,8.557 1.737,12.816 L 77.291,-2.924 0,0 Z" /></g><g
             transform="translate(390.1387,514.4883)"
             id="g232"><path
               inkscape:connector-curvature="0"
               id="path234"
               style="fill:#edc2b4;fill-opacity:1;fill-rule:evenodd;stroke:none"
               d="m 0,0 c -0.33,-16.5 0.252,-33.294 -0.995,-49.74 -1.302,-17.166 14.314,-30.001 27.074,-38.093 2.872,-1.821 7.284,-1.116 10.697,-1.381 5.08,-0.395 7.166,1.648 11.084,4.335 2.327,1.595 4.638,3.215 6.881,4.933 4.46,3.415 8.686,7.222 12.069,11.788 3.381,4.563 5.802,9.407 6.294,15.078 0.381,4.401 1.16,8.802 1.738,13.182 l 2.45,36.89 L 0,0 Z" /></g><g
             transform="translate(391.8306,519.7456)"
             id="g236"><path
               inkscape:connector-curvature="0"
               id="path238"
               style="fill:#964534;fill-opacity:1;fill-rule:evenodd;stroke:none"
               d="m 0,0 c -6.004,-0.649 -13.793,-0.325 -14.767,-6.167 -0.974,-5.842 11.491,-42.431 11.583,-40.48 C -3.091,-44.697 0,0 0,0" /></g><g
             transform="translate(389.0029,478.5444)"
             id="g240"><path
               inkscape:connector-curvature="0"
               id="path242"
               style="fill:#8f3f2e;fill-opacity:1;fill-rule:evenodd;stroke:none"
               d="m 0,0 c 0.422,6.261 1.143,16.757 1.751,25.59 l -0.282,0.708 c 0,0 -2.512,2.483 -4.598,4.99 -2.086,2.508 -3.79,5.348 -3.79,5.348 0,0 1.866,-7.465 3.002,-10.873 1.136,-3.408 2.516,-5.355 1.785,-4.706 -0.73,0.65 -5.68,5.761 -5.68,5.761 0,0 2.271,-10.345 3.61,-12.779 1.338,-2.434 2.272,-4.179 2.109,-3.976 -0.162,0.203 -3.124,2.272 -3.124,2.272 0,0 2.86,-7.71 5.217,-12.335" /></g><g
             transform="translate(464.0723,468.4307)"
             id="g244"><path
               inkscape:connector-curvature="0"
               id="path246"
               style="fill:#964534;fill-opacity:1;fill-rule:evenodd;stroke:none"
               d="m 0,0 -2.297,31.518 c 0,0 -33.591,-8.601 -35.376,-7.466 -1.785,1.136 -22.558,4.868 -33.106,10.548 -10.548,5.679 -11.685,17.039 -11.036,25.153 0.649,8.114 8.925,15.741 8.925,15.741 0,0 0.649,-6.491 10.061,-9.737 9.412,-3.245 34.079,1.623 45.437,-0.324 C -6.031,63.485 1.92,52.451 1.92,52.451 c 0,0 7.951,10e-4 11.197,-8.763 C 16.533,34.463 4.186,10.722 0,0" /></g><g
             transform="translate(464.0723,468.4307)"
             id="g248"><path
               inkscape:connector-curvature="0"
               id="path250"
               style="fill:#8f3f2e;fill-opacity:1;fill-rule:evenodd;stroke:none"
               d="m 0,0 -1.92,26.355 c 2.606,2.365 5.23,5.45 6.346,8.954 2.561,8.041 1.217,12.495 1.217,12.982 0,0.487 2.677,-6.166 1.866,-13.388 C 6.697,27.681 4.183,23.138 3.615,22.001 3.047,20.866 7.59,27.032 7.834,27.682 8.077,28.331 7.509,25.653 5.806,19.568 4.102,13.482 0,0 0,0" /></g><g
             transform="translate(391.1826,543.9248)"
             id="g252"><path
               inkscape:connector-curvature="0"
               id="path254"
               style="fill:#8f3f2e;fill-opacity:1;fill-rule:evenodd;stroke:none"
               d="m 0,0 c 0,0 0.648,-6.491 10.061,-9.737 9.412,-3.245 34.079,1.623 45.437,-0.325 3.953,-0.677 7.492,-2.455 10.428,-4.485 0.352,-0.669 0.704,-1.408 1.054,-2.226 3.165,-7.383 1.867,-14.118 1.786,-13.55 -0.082,0.568 -6.979,8.438 -14.768,12.09 -7.789,3.65 -16.715,4.137 -15.984,4.137 0.729,0 8.437,-6.409 8.033,-6.004 -0.406,0.406 -11.118,4.138 -15.378,5.152 -4.26,1.014 -7.506,0 -6.857,-0.082 0.649,-0.08 9.737,-8.438 9.737,-8.438 0,0 -12.334,5.923 -17.283,8.6 C 13.538,-13.393 0.137,-6.293 0,0" /></g><g
             transform="translate(464.0723,468.4307)"
             id="g256"><path
               inkscape:connector-curvature="0"
               id="path258"
               style="fill:#8d3d2f;fill-opacity:1;fill-rule:evenodd;stroke:none"
               d="m 0,0 -2.297,31.518 c 0,0 -33.591,-8.601 -35.376,-7.466 -1.785,1.136 -27.48,7.518 -33.106,10.548 -5.626,3.029 -2.198,1.384 -2.821,1.812 l -2.98,10.464 c 0,0 7.945,-5.852 8.767,-5.883 0.823,-0.031 -11.07,9.685 -11.039,16.919 0.032,7.233 3.149,14.549 4.057,13.793 0.909,-0.755 -0.162,-7.789 4.544,-14.442 4.706,-6.654 12.009,-6.816 12.82,-7.303 0.811,-0.487 -7.303,12.658 -7.627,13.793 -0.325,1.137 8.6,-8.925 18.175,-12.657 9.575,-3.732 14.768,-2.272 14.768,-2.272 0,0 -5.193,8.114 -6.166,8.763 -0.974,0.649 14.929,-3.408 20.771,-9.574 5.842,-6.167 5.518,-12.333 5.518,-12.333 0,0 2.758,0.162 7.789,4.868 5.031,4.706 4.868,10.548 4.868,10.548 0,0 0.812,-1.46 1.623,-6.653 C 3.906,34.088 -0.831,11.346 0,0" /></g><g
             transform="translate(442.8232,495.3428)"
             id="g260"><path
               inkscape:connector-curvature="0"
               id="path262"
               style="fill:#934133;fill-opacity:1;fill-rule:evenodd;stroke:none"
               d="m 0,0 c -6.504,-1.491 -12.783,-2.803 -15.318,-2.948 -0.6,0.039 -0.994,0.077 -1.106,0.088 -0.582,0.37 -3.181,1.017 -6.787,1.916 l -0.006,0.002 -0.015,0.004 -0.028,0.007 -0.022,0.005 c -0.772,0.199 -7.738,1.993 -9.931,2.598 l -0.011,0.004 c -2.315,0.642 -13.758,10.292 -14.975,11.346 -1.218,1.055 2.678,-1.46 8.114,-3.407 5.436,-1.948 10.791,-2.11 10.791,-2.11 0,0 -2.109,0.974 -6.328,4.219 -4.221,3.246 -14.768,15.092 -16.066,16.877 -1.298,1.785 10.386,-9.412 19.311,-12.658 8.926,-3.245 12.171,-3.894 12.171,-3.894 0,0 -10.062,9.25 -12.009,9.737 -1.947,0.486 7.303,-0.974 16.066,-4.057 8.762,-3.084 12.008,-6.979 12.008,-6.979 L -5.926,21.786 C -5.926,21.786 3.894,4.057 0,0" /></g><g
             transform="translate(462.1455,479.2939)"
             id="g264"><path
               inkscape:connector-curvature="0"
               id="path266"
               style="fill:#614647;fill-opacity:1;fill-rule:evenodd;stroke:none"
               d="m 0,0 c 0.644,-2.041 0.001,-6.553 -0.561,-8.756 -0.562,-2.203 -1.765,-5.631 -3.262,-7.261 -4.633,-5.04 -18.749,-3.46 -21.97,1.364 -2.479,3.714 -6.42,14.513 -0.545,17.121 5.034,2.234 19.039,1.824 23.886,-0.16 0,0 1.809,-0.267 2.452,-2.308 m -67.59,6.663 c 5.068,1.322 19.002,-0.137 23.694,-3.021 5.475,-3.367 0.133,-13.546 -2.819,-16.897 -3.835,-4.351 -18.036,-4.038 -21.956,1.574 -1.267,1.815 -2.003,5.371 -2.267,7.63 -0.263,2.259 -0.299,6.817 0.61,8.753 0.909,1.937 2.738,1.961 2.738,1.961 m 37.16,-3.434 c -0.613,-0.191 -1.591,-0.235 -4.673,0.04 -3.089,0.137 -4.054,0.311 -4.636,0.582 -0.315,0.411 -1.23,1.698 -2.718,2.35 -6.994,3.061 -26.883,3.315 -32.241,2.35 -0.69,-0.124 -0.761,-0.094 -0.865,-0.551 -0.104,-0.456 -0.31,-3.17 -0.119,-3.597 0.191,-0.427 1.222,-0.666 2.053,-2.086 1.489,-2.544 0.783,-11.374 4.448,-15.824 3.797,-4.61 19.276,-5.804 23.852,-0.309 3.023,3.629 4.678,7.78 6.436,11.764 0.959,0.862 1.74,0.883 2.45,0.933 0.44,0.031 0.822,0.018 1.047,0.005 0.226,-0.016 0.606,-0.055 1.039,-0.145 0.696,-0.144 1.467,-0.269 2.302,-1.25 1.213,-4.182 2.3,-8.517 4.814,-12.517 3.804,-6.055 19.304,-6.932 23.679,-2.87 4.226,3.924 4.702,12.769 6.516,15.093 1.013,1.296 2.067,1.396 2.313,1.794 0.245,0.398 0.403,3.115 0.361,3.581 -0.042,0.465 -0.117,0.446 -0.784,0.661 -5.183,1.67 -24.928,4.065 -32.267,1.962 -1.562,-0.447 -2.64,-1.601 -3.007,-1.966" /></g><g
             transform="translate(436.3525,464.6406)"
             id="g268"><path
               inkscape:connector-curvature="0"
               id="path270"
               style="fill:#b7d8e2;fill-opacity:1;fill-rule:evenodd;stroke:none"
               d="m 0,0 c -2.479,3.713 -6.42,14.513 -0.545,17.12 5.034,2.234 19.039,1.826 23.886,-0.159 0,0 1.351,-0.2 2.133,-1.571 0.123,-0.215 0.232,-0.459 0.319,-0.736 C 26.437,12.613 25.794,8.101 25.231,5.897 25.028,5.098 24.74,4.137 24.384,3.16 23.759,1.443 22.924,-0.325 21.97,-1.363 17.337,-6.403 3.221,-4.823 0,0" /></g><g
             transform="translate(418.25,482.9351)"
             id="g272"><path
               inkscape:connector-curvature="0"
               id="path274"
               style="fill:#b7d8e2;fill-opacity:1;fill-rule:evenodd;stroke:none"
               d="m 0,0 c 5.475,-3.367 0.133,-13.545 -2.819,-16.896 -3.835,-4.352 -18.036,-4.039 -21.956,1.574 -0.725,1.037 -1.275,2.642 -1.663,4.25 -0.291,1.206 -0.492,2.412 -0.604,3.38 -0.216,1.856 -0.279,5.261 0.209,7.492 0.105,0.486 0.238,0.915 0.4,1.261 0.91,1.937 2.738,1.961 2.738,1.961 C -18.627,4.343 -4.692,2.885 0,0" /></g><g
             transform="translate(404.5488,404.0542)"
             id="g276"><path
               inkscape:connector-curvature="0"
               id="path278"
               style="fill:#aaa9ac;fill-opacity:1;fill-rule:evenodd;stroke:none"
               d="M 0,0 C 1.299,0.325 9.343,1.502 9.343,1.502 L 16.646,-12.416 0.162,-8.114 0,0 Z" /></g><g
             transform="translate(437.3945,399.7856)"
             id="g280"><path
               inkscape:connector-curvature="0"
               id="path282"
               style="fill:#aaa9ac;fill-opacity:1;fill-rule:evenodd;stroke:none"
               d="M 0,0 C -1.526,1.348 -9.146,4.421 -9.146,4.421 L -15.15,-8.237 1.232,-4.494 0,0 Z" /></g><g
             transform="translate(444.6396,419.624)"
             id="g284"><path
               inkscape:connector-curvature="0"
               id="path286"
               style="fill:#c4c2c6;fill-opacity:1;fill-rule:evenodd;stroke:none"
               d="M 0,0 -16.391,-15.417 -2.922,-34.24 c 0.753,-1.052 10.061,24.015 10.061,24.015 L 0,0 Z" /></g><g
             transform="translate(397.501,420.9727)"
             id="g288"><path
               inkscape:connector-curvature="0"
               id="path290"
               style="fill:#c4c2c6;fill-opacity:1;fill-rule:evenodd;stroke:none"
               d="M 0,0 16.391,-15.417 2.921,-34.24 c -0.752,-1.052 -10.06,24.015 -10.06,24.015 L 0,0 Z" /></g><g
             transform="translate(324.8535,442.4419)"
             id="g292"><path
               inkscape:connector-curvature="0"
               id="path294"
               style="fill:#edc2b4;fill-opacity:1;fill-rule:evenodd;stroke:none"
               d="m 0,0 c 0,0.212 -0.554,6.993 -0.311,14.464 0.193,5.934 1.347,12.347 0.42,15.951 -1.028,4.002 -5.403,4.598 -7.09,-2.152 C -8.332,22.857 -9.008,2.14 -9.008,2.14 c 0,0 -2.62,1.77 -4.422,2.22 -1.801,0.45 -4.923,-2.365 -4.923,-2.365 0,0 -3.422,0.09 -4.972,-0.896 -1.55,-0.986 -2.46,-2.787 -2.46,-2.787 0,0 -2.59,-0.113 -3.153,-1.802 -0.562,-1.689 0.338,-9.008 1.351,-10.36 1.014,-1.35 2.712,-3.489 2.712,-3.489 0.215,-4.264 6.834,-7.286 6.834,-7.286 l 2.669,-11.863 c 0,0 19.424,-3.259 18.748,-1.908 -0.675,1.351 -2.139,14.75 -1.238,16.665 0.9,1.914 4.166,7.881 4.166,10.246 0,2.364 -0.338,9.684 -1.577,10.022 C 3.488,-1.126 0,0 0,0" /></g><g
             transform="translate(322.3525,475.0327)"
             id="g296"><path
               inkscape:connector-curvature="0"
               id="path298"
               style="fill:#dcb1a1;fill-opacity:1;fill-rule:evenodd;stroke:none"
               d="m 0,0 c -1.302,1.612 -3.207,0.767 -4.48,-4.328 -1.351,-5.405 -2.027,-26.123 -2.027,-26.123 0,0 -0.091,0.066 -0.251,0.179 0.006,-0.011 0.915,-1.763 1.42,-2.83 0.506,-1.069 -2.251,-6.868 -2.476,-7.544 -0.225,-0.675 0.736,-4.229 1.184,-5.112 0.449,-0.884 -2.44,-3.719 -4.736,-1.16 -0.888,0.989 -2.216,4.071 -2.861,6.532 -1.022,3.896 -1.131,7.397 -1.131,7.397 0,0 -0.28,-3.302 0.17,-5.779 0.217,-1.198 1.114,-4.146 1.996,-5.798 1.093,-2.05 0.983,-2.362 0.925,-2.71 -0.111,-0.675 -1.668,-1.62 -3.075,-1.733 -1.408,-0.112 -2.092,1.66 -3.055,2.79 -0.963,1.13 -3.998,9.345 -4.11,9.852 -0.113,0.507 0.112,-0.281 0.338,-1.576 0.225,-1.295 2.815,-8.164 3.096,-8.726 0.144,-0.289 1.381,-1.814 1.575,-2.96 0.186,-1.09 -1.346,-2.088 -1.73,-2.39 -0.788,-0.619 -3.146,2.089 -3.146,2.089 0.215,-4.264 5.131,-6.962 5.131,-6.962 l 3.155,-11.699 c 0,0 2.033,-2.321 4.006,-2.499 l 1.705,2.028 c 0.314,0.374 -1.206,7.392 -1.206,7.392 1.29,2.029 6.892,-0.236 11.201,2.119 0.321,0.176 -10.068,-1.308 -8.022,8.041 0.394,1.801 3.152,3.547 3.603,3.659 0.45,0.113 2.646,1.07 3.265,1.858 0.62,0.789 1.352,6.081 1.352,6.081 0,0 -2.193,-3.425 -2.25,-3.931 -0.056,-0.508 -1.973,-2.881 -2.254,-2.993 -0.281,-0.113 -2.026,0.281 -2.533,0.562 -0.507,0.281 -1.801,4.167 -1.801,4.167 0,0 2.14,8.614 3.153,9.008 1.013,0.394 6.37,0.508 6.37,0.508 0,0 -5.807,0.842 -6.483,1.8 -0.675,0.957 -0.888,14.58 -0.393,19.423 C -3.881,-6.523 -3.74,0.417 0,0" /></g><g
             transform="translate(322.9849,415.0273)"
             id="g300"><path
               inkscape:connector-curvature="0"
               id="path302"
               style="fill:#edc2b4;fill-opacity:1;fill-rule:evenodd;stroke:none"
               d="m 0,0 c -0.974,-0.162 -10.033,-1.325 -14.251,1.92 -4.219,3.247 -7.068,5.485 -8.712,7.723 -0.04,-1.207 2.061,-6.686 5.641,-8.581 1.016,-5.351 2.343,-10.181 2.013,-10.863 -0.589,-1.214 16.352,2.431 16.393,3.689 C 1.125,-4.854 0,0 0,0" /></g><g
             transform="translate(382.0376,370.0703)"
             id="g304"><path
               inkscape:connector-curvature="0"
               id="path306"
               style="fill:#dad8da;fill-opacity:1;fill-rule:evenodd;stroke:none"
               d="m 0,0 c -14.379,-9.842 -28.612,-19.899 -43.128,-29.535 -25.46,-16.9 -33.845,64.407 -35.104,64.447 l 27.894,4.944 2.99,-46.049 31.19,38.632 L 0,0 Z" /></g><g
             transform="translate(425.2461,397.8779)"
             id="g308"><path
               inkscape:connector-curvature="0"
               id="path310"
               style="fill:#362f34;fill-opacity:1;fill-rule:evenodd;stroke:none"
               d="M 0,0 0.964,-7.211 2.951,-98.373 -11.168,-113.789 -23.987,-95.776 -9.475,-6.901 0,0 Z" /></g><g
             transform="translate(413.877,403.8926)"
             id="g312"><path
               inkscape:connector-curvature="0"
               id="path314"
               style="fill:#362f34;fill-opacity:1;fill-rule:evenodd;stroke:none"
               d="m 0,0 c 1.541,0 15.092,0.244 15.254,-0.811 0.162,-1.055 1.542,-6.978 0.974,-7.464 -0.568,-0.488 -2.575,-4.762 -3.895,-4.951 -1.321,-0.188 -9.447,0.048 -10.438,0.31 -0.991,0.261 -3.113,4.884 -3.113,5.451 C -1.218,-6.896 0,0 0,0" /></g><g
             transform="translate(424.0664,475.9082)"
             id="g316"><path
               inkscape:connector-curvature="0"
               id="path318"
               style="fill:#dcab98;fill-opacity:1;fill-rule:evenodd;stroke:none"
               d="m 0,0 c 0,-0.974 -4.058,-16.958 -4.058,-16.958 -4.338,-2.433 -4.216,-1.165 -7.505,-4.058 0.752,2.907 6.207,6.086 6.207,6.086 L 0,0 Z" /></g><g
             transform="translate(430.2305,451.0801)"
             id="g320"><path
               inkscape:connector-curvature="0"
               id="path322"
               style="fill:#dcab98;fill-opacity:1;fill-rule:evenodd;stroke:none"
               d="m 0,0 c -0.568,-0.324 -4.464,-1.704 -6.897,-2.11 -2.435,-0.406 -4.301,0.163 -5.032,0.406 -0.729,0.243 -5.598,3.246 -4.949,3.246 0.649,0 7.524,-0.444 7.524,-0.444 C -11.941,1.257 0.925,0.529 0,0" /></g><g
             transform="translate(423.5332,440.1743)"
             id="g324"><path
               inkscape:connector-curvature="0"
               id="path326"
               style="fill:#7f5e57;fill-opacity:1;fill-rule:nonzero;stroke:none"
               d="M 0,0 C 0.81,0 1.59,0.036 2.331,0.109 8.37,0.709 16.136,4.64 16.214,4.679 16.728,4.536 16.242,5.484 15.986,5.125 15.909,5.085 8.227,1.198 2.281,0.606 -3.482,0.032 -11.681,1.795 -17.21,4.797 -17.476,5.375 -18.105,4.254 -17.448,4.357 -12.551,1.699 -5.585,0 0,0" /></g><g
             transform="translate(401.2588,302.1016)"
             id="g328"><path
               inkscape:connector-curvature="0"
               id="path330"
               style="fill:#2c272d;fill-opacity:1;fill-rule:evenodd;stroke:none"
               d="m 0,0 14.513,88.875 c -0.491,0.129 -1.259,1.329 -1.909,2.576 -0.497,0.951 -0.924,1.93 -1.108,2.482 -0.061,0.185 -0.096,0.322 -0.096,0.393 0,0.569 1.218,7.465 1.218,7.465 0.166,0 0.472,0.003 0.884,0.006 0.221,0.003 0.471,0.005 0.747,0.007 -0.101,-0.264 -0.203,-0.55 -0.305,-0.848 -0.597,-1.749 -1.159,-3.955 -0.951,-5.145 0.199,-1.136 0.968,-2.733 1.741,-3.873 0.511,-0.755 1.025,-1.311 1.377,-1.403 0.013,-0.004 0.029,-0.007 0.044,-0.011 0.108,-0.027 0.272,-0.062 0.479,-0.105 0.418,-0.086 1.013,-0.201 1.679,-0.327 0.469,-0.089 0.973,-0.183 1.476,-0.275 0.43,-0.079 0.858,-0.157 1.262,-0.231 0.102,-0.019 0.203,-0.037 0.302,-0.055 0.01,-0.002 0.021,-0.004 0.031,-0.006 1.154,-0.209 2.034,-0.366 2.034,-0.366 0,0 -1.689,-0.264 -3.419,-0.619 C 18.307,88.194 16.576,87.765 16.343,87.414 15.871,86.707 1.815,2.914 2.715,0.478 2.881,0.026 3.334,-0.893 3.959,-2.091 c 0.365,-0.7 0.791,-1.495 1.253,-2.347 0.672,-1.242 1.423,-2.605 2.184,-3.973 0.714,-1.284 1.438,-2.574 2.114,-3.773 1.395,-2.476 2.587,-4.564 3.074,-5.418 0.152,-0.265 0.235,-0.411 0.235,-0.411 l -0.28,0.395 -3.076,4.321 -2.218,3.116 L 2.653,-3.729 0.565,-0.795 0,0 Z" /></g><g
             transform="translate(382.4541,180.4414)"
             id="g332"><path
               inkscape:connector-curvature="0"
               id="path334"
               style="fill:#864235;fill-opacity:1;fill-rule:evenodd;stroke:none"
               d="m 0,0 -106.658,0.189 c -1.568,0.003 -2.777,-1.285 -2.85,-2.85 l -3.68,-78.45 c -0.073,-1.567 1.283,-2.851 2.851,-2.851 l 114.3,0 c 1.567,0 2.929,1.284 2.849,2.851 L 2.85,-2.85 C 2.771,-1.284 1.568,-0.002 0,0" /></g><g
             transform="translate(382.2715,177.4043)"
             id="g336"><path
               inkscape:connector-curvature="0"
               id="path338"
               style="fill:#964534;fill-opacity:1;fill-rule:evenodd;stroke:none"
               d="m 0,0 3.944,-77.886 -113.898,0 3.667,78.073 L 0,0 Z" /></g><g
             transform="translate(314.6377,187.0986)"
             id="g340"><path
               inkscape:connector-curvature="0"
               id="path342"
               style="fill:#362f34;fill-opacity:1;fill-rule:evenodd;stroke:none"
               d="m 0,0 c -0.152,0 -0.277,-0.124 -0.277,-0.276 l 0,-6.899 c 0,-0.152 0.125,-0.277 0.277,-0.277 l 29.258,0 c 0.152,0 0.277,0.125 0.277,0.277 l 0,6.899 C 29.535,-0.124 29.41,0 29.258,0 L 0,0 Z m 29.258,5.189 c 1.865,0 3.39,-1.525 3.39,-3.389 l 0,-8.976 c 0,-1.864 -1.525,-3.389 -3.39,-3.389 l -29.258,0 c -1.865,0 -3.39,1.525 -3.39,3.389 l 0,8.976 c 0,1.864 1.525,3.389 3.39,3.389 l 29.258,0 z" /></g><g
             transform="translate(387.6748,181.4004)"
             id="g344"><path
               inkscape:connector-curvature="0"
               id="path346"
               style="fill:#6f2b20;fill-opacity:1;fill-rule:evenodd;stroke:none"
               d="m 0,0 -116.816,0 c -1.602,0 -2.913,-1.311 -2.913,-2.913 l 0,-35.785 c 14.126,-9.298 36.337,-15.293 61.321,-15.293 24.984,0 47.195,5.995 61.321,15.292 l 0,35.786 C 2.913,-1.311 1.603,0 0,0" /></g></g></g><g
         id="g348"><g
           clip-path="url(#clipPath352)"
           id="g350"><g
             transform="translate(452.3936,451.9307)"
             id="g356"><path
               inkscape:connector-curvature="0"
               id="path358"
               style="fill:#d1e2e4;fill-opacity:1;fill-rule:evenodd;stroke:none"
               d="M 0,0 5.519,2.159 -10.14,42.185 -15.659,40.026 0,0 Z" /></g></g></g><g
         id="g360"><g
           clip-path="url(#clipPath364)"
           id="g362"><g
             transform="translate(412.0771,454.564)"
             id="g368"><path
               inkscape:connector-curvature="0"
               id="path370"
               style="fill:#d1e2e4;fill-opacity:1;fill-rule:evenodd;stroke:none"
               d="M 0,0 5.389,2.466 -12.492,41.549 -17.881,39.084 0,0 Z" /></g></g></g><g
         id="g372"><g
           clip-path="url(#clipPath376)"
           id="g374"><g
             transform="translate(388.0874,182.291)"
             id="g380"><path
               inkscape:connector-curvature="0"
               id="path382"
               style="fill:#68281d;fill-opacity:1;fill-rule:nonzero;stroke:none"
               d="m 0,0 c 0,0.253 -0.197,0.483 -0.413,0.483 l -116.816,0 c -0.215,0 -0.413,-0.23 -0.413,-0.483 l 0,-37.121 c 14.354,-9.701 35.773,-15.261 58.822,-15.261 23.048,0 44.466,5.56 58.82,15.261 L 0,0 Z m -118.424,-37.799 -0.218,0.15 0,37.649 c 0,0.804 0.648,1.483 1.413,1.483 l 116.816,0 C 0.353,1.483 1,0.804 1,0 l 0,-37.65 -0.218,-0.149 c -14.517,-9.903 -36.241,-15.583 -59.602,-15.583 -23.363,0 -45.087,5.68 -59.604,15.583" /></g></g></g><g
         id="g384"><g
           clip-path="url(#clipPath388)"
           id="g386"><g
             transform="translate(336.0645,133.9219)"
             id="g392"><path
               inkscape:connector-curvature="0"
               id="path394"
               style="fill:#e4e3e4;fill-opacity:1;fill-rule:evenodd;stroke:none"
               d="m 0,0 -10.574,0 c -0.67,0 -1.218,-0.549 -1.218,-1.22 l 0,-11.309 c 0,-0.67 0.548,-1.219 1.218,-1.219 l 10.574,0 c 0.67,0 1.219,0.549 1.219,1.219 l 0,11.309 C 1.219,-0.549 0.67,0 0,0" /></g><g
             transform="translate(334.791,131.5586)"
             id="g396"><path
               inkscape:connector-curvature="0"
               id="path398"
               style="fill:#89858b;fill-opacity:1;fill-rule:evenodd;stroke:none"
               d="m 0,0 -8.027,0 c -0.392,0 -0.712,-0.32 -0.712,-0.712 l 0,-7.597 c 0,-0.392 0.32,-0.712 0.712,-0.712 l 8.027,0 c 0.392,0 0.712,0.32 0.712,0.712 l 0,7.597 C 0.712,-0.32 0.392,0 0,0" /></g><g
             transform="translate(414.0781,284.0879)"
             id="g400"><path
               inkscape:connector-curvature="0"
               id="path402"
               style="fill:#cecccf;fill-opacity:1;fill-rule:evenodd;stroke:none"
               d="M 0,0 -0.001,0.001 0,0.001 0,0 Z" /></g><g
             transform="translate(306.6211,405.4819)"
             id="g404"><path
               inkscape:connector-curvature="0"
               id="path406"
               style="fill:#cecccf;fill-opacity:1;fill-rule:evenodd;stroke:none"
               d="m 0,0 c 1.077,-1.642 2.14,-4.224 2.522,-8.224 0.88,-9.183 10.821,-43.954 17.802,-51.284 6.981,-7.33 11.169,-1.047 20.244,6.632 7.798,6.598 30.568,16.372 29.89,27.42 -0.25,4.053 6.759,-11.365 8.092,-22.534 1.333,-11.169 -2.031,-40.838 -3.133,-46.771 -1.104,-5.934 0.055,-9.075 4.592,-8.161 4.538,0.915 3.142,-7.895 8.99,-13.075 l 0,-3.941 c -17.189,3.86 -21.788,10.312 -21.788,10.312 3.803,14.954 7.215,30.652 7.882,46.139 0.379,8.808 -1.012,17.289 -3.282,25.593 C 58.656,-46.941 45.589,-56.118 32.288,-64.947 6.829,-81.846 -1.557,-0.54 -2.815,-0.499 c 0,0 1.086,0.192 2.815,0.499" /></g><g
             transform="translate(440.7002,296.9932)"
             id="g408"><path
               inkscape:connector-curvature="0"
               id="path410"
               style="fill:#cecccf;fill-opacity:1;fill-rule:evenodd;stroke:none"
               d="M 0,0 37.353,39.061 17.443,85.56 c 1.376,0.006 5.717,-3.824 5.717,-3.824 1.531,-3.063 13.277,-33.365 16.596,-37.746 3.318,-4.381 6.544,-5.08 6.544,-5.08 0,0 -3.737,-0.067 -8.076,-4.407 C 34.557,30.836 12.31,3.123 4.872,-4.626 L 0,0 Z" /></g><g
             transform="translate(446.4648,314.6436)"
             id="g412"><path
               inkscape:connector-curvature="0"
               id="path414"
               style="fill:#cecccf;fill-opacity:1;fill-rule:evenodd;stroke:none"
               d="m 0,0 c 0.8,9.703 2.067,7.874 3.098,24.886 1.07,17.682 7.205,43.017 8.581,43.023 1.376,0.007 5.717,-3.823 5.717,-3.823 0.308,-0.617 1.036,-2.352 2.02,-4.745 -0.69,-1.64 -1.196,-2.829 -1.405,-3.279 C 8.504,35.599 3.8,14.546 6.786,-8.234 c 0.2,-1.519 0.445,-3.02 0.714,-4.517 -1.836,-2.162 -3.55,-4.154 -5.05,-5.854 l -8.477,-2.986 c -2.012,1.865 -4.311,4.011 -4.152,4.487 C -9.924,-16.339 -0.8,-9.703 0,0" /></g></g></g></g></g></svg>